<mxfile host="app.diagrams.net" agent="Mozilla/5.0 (Macintosh; Intel Mac OS X 10_15_7) AppleWebKit/537.36 (KHTML, like Gecko) Chrome/132.0.0.0 Safari/537.36" version="26.0.11">
  <diagram name="페이지-1" id="kdvOSv1u4ipNzLo9T3je">
    <mxGraphModel dx="1094" dy="581" grid="0" gridSize="10" guides="1" tooltips="1" connect="1" arrows="1" fold="1" page="0" pageScale="1" pageWidth="827" pageHeight="1169" math="0" shadow="0">
      <root>
        <mxCell id="0" />
        <mxCell id="1" parent="0" />
        <mxCell id="SoBNlFSqUFT2dmmgbRlF-4" value="" style="shape=mxgraph.cisco.servers.standard_host;sketch=0;html=1;pointerEvents=1;dashed=0;fillColor=#036897;strokeColor=#ffffff;strokeWidth=2;verticalLabelPosition=bottom;verticalAlign=top;align=center;outlineConnect=0;" parent="1" vertex="1">
          <mxGeometry x="-130" y="741" width="66" height="87" as="geometry" />
        </mxCell>
        <mxCell id="SoBNlFSqUFT2dmmgbRlF-6" value="" style="shape=mxgraph.cisco.computers_and_peripherals.pc;sketch=0;html=1;pointerEvents=1;dashed=0;fillColor=#036897;strokeColor=#ffffff;strokeWidth=2;verticalLabelPosition=bottom;verticalAlign=top;align=center;outlineConnect=0;" parent="1" vertex="1">
          <mxGeometry x="-219" y="604" width="78" height="70" as="geometry" />
        </mxCell>
        <mxCell id="SoBNlFSqUFT2dmmgbRlF-7" value="" style="shape=mxgraph.cisco.computers_and_peripherals.pc;sketch=0;html=1;pointerEvents=1;dashed=0;fillColor=#036897;strokeColor=#ffffff;strokeWidth=2;verticalLabelPosition=bottom;verticalAlign=top;align=center;outlineConnect=0;" parent="1" vertex="1">
          <mxGeometry x="129" y="997" width="78" height="70" as="geometry" />
        </mxCell>
        <mxCell id="SoBNlFSqUFT2dmmgbRlF-8" value="" style="shape=mxgraph.cisco.computers_and_peripherals.pc;sketch=0;html=1;pointerEvents=1;dashed=0;fillColor=#036897;strokeColor=#ffffff;strokeWidth=2;verticalLabelPosition=bottom;verticalAlign=top;align=center;outlineConnect=0;" parent="1" vertex="1">
          <mxGeometry x="437" y="594" width="78" height="70" as="geometry" />
        </mxCell>
        <mxCell id="SoBNlFSqUFT2dmmgbRlF-9" value="" style="shape=mxgraph.cisco.routers.router;sketch=0;html=1;pointerEvents=1;dashed=0;fillColor=#036897;strokeColor=#ffffff;strokeWidth=2;verticalLabelPosition=bottom;verticalAlign=top;align=center;outlineConnect=0;" parent="1" vertex="1">
          <mxGeometry x="116" y="612.5" width="78" height="53" as="geometry" />
        </mxCell>
        <mxCell id="SoBNlFSqUFT2dmmgbRlF-10" value="" style="shape=mxgraph.cisco.routers.router;sketch=0;html=1;pointerEvents=1;dashed=0;fillColor=#036897;strokeColor=#ffffff;strokeWidth=2;verticalLabelPosition=bottom;verticalAlign=top;align=center;outlineConnect=0;" parent="1" vertex="1">
          <mxGeometry x="316" y="603" width="78" height="53" as="geometry" />
        </mxCell>
        <mxCell id="SoBNlFSqUFT2dmmgbRlF-11" value="" style="shape=mxgraph.cisco.routers.router;sketch=0;html=1;pointerEvents=1;dashed=0;fillColor=#036897;strokeColor=#ffffff;strokeWidth=2;verticalLabelPosition=bottom;verticalAlign=top;align=center;outlineConnect=0;" parent="1" vertex="1">
          <mxGeometry x="207" y="780" width="78" height="53" as="geometry" />
        </mxCell>
        <mxCell id="SoBNlFSqUFT2dmmgbRlF-12" value="" style="shape=mxgraph.cisco.computers_and_peripherals.laptop;sketch=0;html=1;pointerEvents=1;dashed=0;fillColor=#036897;strokeColor=#ffffff;strokeWidth=2;verticalLabelPosition=bottom;verticalAlign=top;align=center;outlineConnect=0;" parent="1" vertex="1">
          <mxGeometry x="100" y="429" width="90" height="61" as="geometry" />
        </mxCell>
        <mxCell id="SoBNlFSqUFT2dmmgbRlF-13" value="" style="shape=mxgraph.cisco.switches.workgroup_switch;sketch=0;html=1;pointerEvents=1;dashed=0;fillColor=#036897;strokeColor=#ffffff;strokeWidth=2;verticalLabelPosition=bottom;verticalAlign=top;align=center;outlineConnect=0;" parent="1" vertex="1">
          <mxGeometry x="-59" y="614" width="101" height="50" as="geometry" />
        </mxCell>
        <mxCell id="SoBNlFSqUFT2dmmgbRlF-27" value="" style="endArrow=none;html=1;rounded=0;fontSize=12;startSize=8;endSize=8;curved=1;exitX=0.83;exitY=0.5;exitDx=0;exitDy=0;exitPerimeter=0;entryX=0;entryY=0.5;entryDx=0;entryDy=0;entryPerimeter=0;" parent="1" edge="1">
          <mxGeometry width="50" height="50" relative="1" as="geometry">
            <mxPoint x="-154" y="639" as="sourcePoint" />
            <mxPoint x="-59" y="639" as="targetPoint" />
          </mxGeometry>
        </mxCell>
        <mxCell id="SoBNlFSqUFT2dmmgbRlF-28" value="" style="endArrow=none;html=1;rounded=0;fontSize=12;startSize=8;endSize=8;curved=1;exitX=0.98;exitY=0.5;exitDx=0;exitDy=0;exitPerimeter=0;entryX=0;entryY=0.5;entryDx=0;entryDy=0;entryPerimeter=0;" parent="1" source="SoBNlFSqUFT2dmmgbRlF-13" target="SoBNlFSqUFT2dmmgbRlF-9" edge="1">
          <mxGeometry width="50" height="50" relative="1" as="geometry">
            <mxPoint x="74" y="702" as="sourcePoint" />
            <mxPoint x="169" y="702" as="targetPoint" />
          </mxGeometry>
        </mxCell>
        <mxCell id="SoBNlFSqUFT2dmmgbRlF-29" value="" style="endArrow=none;html=1;rounded=0;fontSize=12;startSize=8;endSize=8;curved=1;exitX=1;exitY=0;exitDx=0;exitDy=0;exitPerimeter=0;" parent="1" source="SoBNlFSqUFT2dmmgbRlF-4" target="SoBNlFSqUFT2dmmgbRlF-13" edge="1">
          <mxGeometry width="50" height="50" relative="1" as="geometry">
            <mxPoint x="-77" y="721" as="sourcePoint" />
            <mxPoint x="18" y="721" as="targetPoint" />
          </mxGeometry>
        </mxCell>
        <mxCell id="jjETDJKS-YE9c8RTnBO9-9" value="" style="html=1;outlineConnect=0;fillColor=#CCCCCC;strokeColor=#6881B3;gradientColor=none;gradientDirection=north;strokeWidth=2;shape=mxgraph.networks.comm_link_edge;html=1;rounded=0;fontSize=12;startSize=8;endSize=8;curved=1;exitX=1;exitY=0.5;exitDx=0;exitDy=0;exitPerimeter=0;entryX=0;entryY=0.5;entryDx=0;entryDy=0;entryPerimeter=0;" edge="1" parent="1" source="SoBNlFSqUFT2dmmgbRlF-9" target="SoBNlFSqUFT2dmmgbRlF-10">
          <mxGeometry width="100" height="100" relative="1" as="geometry">
            <mxPoint x="183" y="642" as="sourcePoint" />
            <mxPoint x="283" y="542" as="targetPoint" />
          </mxGeometry>
        </mxCell>
        <mxCell id="jjETDJKS-YE9c8RTnBO9-10" value="" style="html=1;outlineConnect=0;fillColor=#CCCCCC;strokeColor=#6881B3;gradientColor=none;gradientDirection=north;strokeWidth=2;shape=mxgraph.networks.comm_link_edge;html=1;rounded=0;fontSize=12;startSize=8;endSize=8;curved=1;exitX=0.88;exitY=0.1;exitDx=0;exitDy=0;exitPerimeter=0;entryX=0.5;entryY=1;entryDx=0;entryDy=0;entryPerimeter=0;" edge="1" parent="1" source="SoBNlFSqUFT2dmmgbRlF-11" target="SoBNlFSqUFT2dmmgbRlF-10">
          <mxGeometry width="100" height="100" relative="1" as="geometry">
            <mxPoint x="267" y="723" as="sourcePoint" />
            <mxPoint x="389" y="714" as="targetPoint" />
          </mxGeometry>
        </mxCell>
        <mxCell id="jjETDJKS-YE9c8RTnBO9-11" value="" style="html=1;outlineConnect=0;fillColor=#CCCCCC;strokeColor=#6881B3;gradientColor=none;gradientDirection=north;strokeWidth=2;shape=mxgraph.networks.comm_link_edge;html=1;rounded=0;fontSize=12;startSize=8;endSize=8;curved=1;exitX=0.5;exitY=1;exitDx=0;exitDy=0;exitPerimeter=0;" edge="1" parent="1" source="SoBNlFSqUFT2dmmgbRlF-9" target="SoBNlFSqUFT2dmmgbRlF-11">
          <mxGeometry width="100" height="100" relative="1" as="geometry">
            <mxPoint x="127" y="743" as="sourcePoint" />
            <mxPoint x="249" y="734" as="targetPoint" />
          </mxGeometry>
        </mxCell>
        <mxCell id="jjETDJKS-YE9c8RTnBO9-12" value="" style="endArrow=none;html=1;rounded=0;fontSize=12;startSize=8;endSize=8;curved=1;exitX=0.5;exitY=0;exitDx=0;exitDy=0;exitPerimeter=0;entryX=0.5;entryY=1;entryDx=0;entryDy=0;entryPerimeter=0;" edge="1" parent="1" source="SoBNlFSqUFT2dmmgbRlF-9" target="SoBNlFSqUFT2dmmgbRlF-12">
          <mxGeometry width="50" height="50" relative="1" as="geometry">
            <mxPoint x="203" y="672" as="sourcePoint" />
            <mxPoint x="253" y="622" as="targetPoint" />
            <Array as="points">
              <mxPoint x="99" y="584" />
            </Array>
          </mxGeometry>
        </mxCell>
        <mxCell id="jjETDJKS-YE9c8RTnBO9-15" value="" style="endArrow=none;dashed=1;html=1;rounded=0;fontSize=12;startSize=8;endSize=8;curved=1;exitX=1;exitY=0.5;exitDx=0;exitDy=0;exitPerimeter=0;" edge="1" parent="1" source="SoBNlFSqUFT2dmmgbRlF-10" target="SoBNlFSqUFT2dmmgbRlF-8">
          <mxGeometry width="50" height="50" relative="1" as="geometry">
            <mxPoint x="352" y="601" as="sourcePoint" />
            <mxPoint x="402" y="551" as="targetPoint" />
          </mxGeometry>
        </mxCell>
        <mxCell id="jjETDJKS-YE9c8RTnBO9-16" value="" style="endArrow=none;dashed=1;html=1;rounded=0;fontSize=12;startSize=8;endSize=8;curved=1;exitX=0.5;exitY=1;exitDx=0;exitDy=0;exitPerimeter=0;entryX=0.5;entryY=0;entryDx=0;entryDy=0;entryPerimeter=0;" edge="1" parent="1" source="SoBNlFSqUFT2dmmgbRlF-11" target="SoBNlFSqUFT2dmmgbRlF-7">
          <mxGeometry width="50" height="50" relative="1" as="geometry">
            <mxPoint x="404" y="640" as="sourcePoint" />
            <mxPoint x="447" y="639" as="targetPoint" />
          </mxGeometry>
        </mxCell>
      </root>
    </mxGraphModel>
  </diagram>
</mxfile>
